<?xml version="1.0" encoding="UTF-8"?>
<svg xmlns="http://www.w3.org/2000/svg" xmlns:xlink="http://www.w3.org/1999/xlink" width="110px" height="px" viewBox="0 0 110 110" version="1.1">
<g id="surface1">
<path style=" stroke:none;fill-rule:nonzero;fill:rgb(0%,0%,0%);fill-opacity:1;" d="M 55 0 C 24.628906 0 0 24.625 0 55 C 0 79.300781 15.757812 99.917969 37.617188 107.191406 C 40.359375 107.699219 41.25 105.996094 41.25 104.546875 L 41.25 94.308594 C 25.949219 97.632812 22.765625 87.816406 22.765625 87.816406 C 20.261719 81.460938 16.65625 79.769531 16.65625 79.769531 C 11.664062 76.355469 17.035156 76.425781 17.035156 76.425781 C 22.558594 76.8125 25.464844 82.097656 25.464844 82.097656 C 30.371094 90.503906 38.332031 88.074219 41.46875 86.667969 C 41.960938 83.113281 43.386719 80.683594 44.960938 79.316406 C 32.746094 77.917969 19.90625 73.199219 19.90625 52.128906 C 19.90625 46.121094 22.054688 41.21875 25.570312 37.367188 C 25.003906 35.980469 23.117188 30.382812 26.105469 22.8125 C 26.105469 22.8125 30.726562 21.335938 41.234375 28.449219 C 45.621094 27.230469 50.324219 26.621094 55 26.597656 C 59.675781 26.621094 64.382812 27.230469 68.777344 28.449219 C 79.277344 21.335938 83.890625 22.8125 83.890625 22.8125 C 86.882812 30.386719 84.996094 35.984375 84.429688 37.367188 C 87.957031 41.21875 90.089844 46.125 90.089844 52.128906 C 90.089844 73.253906 77.222656 77.90625 64.976562 79.269531 C 66.949219 80.972656 68.75 84.320312 68.75 89.453125 L 68.75 104.546875 C 68.75 106.007812 69.628906 107.726562 72.421875 107.1875 C 94.261719 99.902344 110 79.292969 110 55 C 110 24.625 85.375 0 55 0 Z M 55 0 "/>
</g>
</svg>
