<?xml version="1.0" encoding="UTF-8"?>
<svg xmlns="http://www.w3.org/2000/svg" xmlns:xlink="http://www.w3.org/1999/xlink" width="110px" height="px" viewBox="0 0 110 110" version="1.1">
<g id="surface1">
<path style=" stroke:none;fill-rule:nonzero;fill:rgb(0%,0%,0%);fill-opacity:1;" d="M 0 55 C 0 39.816406 5.371094 26.855469 16.113281 16.113281 C 26.855469 5.371094 39.816406 0 55 0 C 70.183594 0 83.144531 5.371094 93.886719 16.113281 C 104.628906 26.855469 110 39.816406 110 55 C 110 70.183594 104.628906 83.144531 93.886719 93.886719 C 83.144531 104.628906 70.183594 110 55 110 C 39.816406 110 26.855469 104.628906 16.113281 93.886719 C 5.371094 83.144531 0 70.183594 0 55 Z M 6.015625 55 C 6.015625 68.464844 10.8125 79.992188 20.410156 89.589844 C 30.007812 99.1875 41.535156 103.984375 55 103.984375 C 68.464844 103.984375 79.992188 99.1875 89.589844 89.589844 C 99.1875 79.992188 103.984375 68.464844 103.984375 55 C 103.984375 41.535156 99.1875 30.007812 89.589844 20.410156 C 79.992188 10.8125 68.464844 6.015625 55 6.015625 C 41.535156 6.015625 30.007812 10.8125 20.410156 20.410156 C 10.8125 30.007812 6.015625 41.535156 6.015625 55 Z M 21.484375 66.816406 C 21.199219 66.53125 21.199219 66.242188 21.484375 65.957031 C 22.058594 65.382812 22.773438 65.167969 23.632812 65.3125 C 24.492188 65.457031 24.992188 65.597656 25.136719 65.742188 C 26.140625 66.171875 27.25 67.136719 28.464844 68.640625 C 29.683594 70.144531 30.652344 71.183594 31.367188 71.757812 C 34.804688 74.621094 38.3125 74.835938 41.894531 72.402344 C 42.179688 71.398438 42.644531 70.539062 43.289062 69.824219 C 43.933594 69.109375 44.542969 68.605469 45.117188 68.320312 C 45.691406 68.035156 46.691406 67.605469 48.125 67.03125 C 43.398438 66.601562 39.566406 65.777344 36.628906 64.558594 C 33.695312 63.34375 31.367188 61.804688 29.648438 59.941406 C 27.355469 57.363281 25.960938 53.996094 25.457031 49.84375 C 24.957031 45.691406 25.28125 41.894531 26.425781 38.457031 C 27.285156 36.308594 28.503906 34.375 30.078125 32.65625 C 28.933594 29.074219 29.148438 24.992188 30.722656 20.410156 C 35.304688 20.695312 39.460938 22.273438 43.183594 25.136719 C 50.34375 23.273438 57.792969 23.203125 65.527344 24.921875 C 66.53125 24.207031 68.070312 23.308594 70.144531 22.234375 C 72.222656 21.160156 74.835938 20.554688 77.988281 20.410156 C 78.5625 21.984375 78.953125 23.847656 79.167969 25.996094 C 79.382812 28.144531 79.277344 30.148438 78.847656 32.011719 C 82.140625 35.449219 83.859375 40.03125 84.003906 45.761719 C 84.003906 50.34375 83.214844 54.140625 81.640625 57.148438 C 80.066406 60.15625 77.273438 62.664062 73.261719 64.667969 C 70.539062 65.957031 66.960938 66.746094 62.519531 67.03125 C 64.523438 68.035156 65.992188 69.070312 66.921875 70.144531 C 67.855469 71.21875 68.464844 72.902344 68.75 75.195312 L 68.75 81.960938 L 68.964844 88.515625 C 69.394531 89.230469 69.894531 89.839844 70.46875 90.339844 C 71.042969 90.84375 71.542969 91.199219 71.972656 91.414062 C 72.402344 91.628906 72.546875 91.953125 72.402344 92.382812 C 72.257812 92.8125 71.6875 93.027344 70.683594 93.027344 C 68.25 93.027344 66.316406 92.167969 64.882812 90.449219 C 64.453125 89.734375 64.238281 88.875 64.238281 87.871094 L 64.238281 77.558594 C 64.238281 76.414062 63.953125 75.589844 63.378906 75.085938 C 62.804688 74.585938 62.234375 74.265625 61.660156 74.121094 L 61.660156 87.65625 C 61.660156 90.089844 61.945312 91.667969 62.519531 92.382812 C 63.09375 93.097656 63.449219 93.816406 63.59375 94.53125 C 63.738281 94.675781 63.628906 94.78125 63.269531 94.851562 C 62.914062 94.925781 62.304688 94.816406 61.445312 94.53125 C 59.582031 94.101562 58.292969 93.132812 57.578125 91.628906 C 56.863281 90.125 56.503906 88.515625 56.503906 86.796875 L 56.503906 73.476562 L 53.710938 73.476562 L 53.710938 86.796875 C 53.710938 88.515625 53.351562 90.164062 52.636719 91.738281 C 51.632812 93.742188 49.773438 94.816406 47.050781 94.960938 C 46.621094 94.816406 46.40625 94.675781 46.40625 94.53125 C 46.550781 94.386719 46.980469 93.671875 47.695312 92.382812 C 47.839844 92.097656 48.019531 91.523438 48.234375 90.664062 C 48.449219 89.804688 48.554688 88.800781 48.554688 87.65625 L 48.554688 74.121094 C 47.980469 74.265625 47.445312 74.585938 46.945312 75.085938 C 46.441406 75.589844 46.191406 76.414062 46.191406 77.558594 L 46.191406 87.871094 C 46.191406 88.875 45.976562 89.734375 45.546875 90.449219 C 44.257812 92.167969 42.324219 93.027344 39.746094 93.027344 C 38.742188 93.027344 38.171875 92.8125 38.027344 92.382812 C 37.882812 92.097656 37.921875 91.847656 38.136719 91.632812 C 38.351562 91.417969 38.671875 91.164062 39.101562 90.878906 C 39.53125 90.59375 39.816406 90.378906 39.960938 90.234375 C 40.535156 89.804688 40.964844 89.230469 41.25 88.515625 C 41.679688 87.941406 41.789062 86.4375 41.574219 84.003906 C 41.359375 81.570312 41.320312 79.992188 41.464844 79.277344 C 37.742188 80.566406 33.945312 79.921875 30.078125 77.34375 C 28.933594 76.199219 27.785156 74.550781 26.640625 72.402344 C 25.78125 70.828125 24.0625 68.964844 21.484375 66.816406 Z M 21.484375 66.816406 "/>
</g>
</svg>
