<?xml version="1.0" encoding="UTF-8"?>
<svg xmlns="http://www.w3.org/2000/svg" xmlns:xlink="http://www.w3.org/1999/xlink" width="110px" height="px" viewBox="0 0 110 110" version="1.1">
<g id="surface1">
<path style=" stroke:none;fill-rule:evenodd;fill:rgb(0%,0%,0%);fill-opacity:1;" d="M 59.570312 49.402344 L 59.570312 49.242188 C 59.535156 49.296875 59.492188 49.351562 59.460938 49.402344 Z M 59.570312 49.402344 "/>
<path style=" stroke:none;fill-rule:evenodd;fill:rgb(0%,0%,0%);fill-opacity:1;" d="M 0 0 L 0 110 L 110 110 L 110 0 Z M 34.214844 91.386719 L 17.894531 91.386719 L 17.894531 42.285156 L 34.214844 42.285156 Z M 26.054688 35.582031 L 25.945312 35.582031 C 20.472656 35.582031 16.921875 31.8125 16.921875 27.097656 C 16.921875 22.28125 20.574219 18.613281 26.160156 18.613281 C 31.746094 18.613281 35.179688 22.28125 35.289062 27.097656 C 35.289062 31.8125 31.746094 35.582031 26.054688 35.582031 Z M 93.078125 91.386719 L 76.753906 91.386719 L 76.753906 65.117188 C 76.753906 58.519531 74.394531 54.015625 68.484375 54.015625 C 63.972656 54.015625 61.292969 57.046875 60.109375 59.984375 C 59.679688 61.035156 59.570312 62.492188 59.570312 63.964844 L 59.570312 91.386719 L 43.242188 91.386719 C 43.242188 91.386719 43.460938 46.890625 43.242188 42.285156 L 59.570312 42.285156 L 59.570312 49.242188 C 61.738281 45.90625 65.609375 41.132812 74.28125 41.132812 C 85.023438 41.132812 93.078125 48.148438 93.078125 63.230469 Z M 93.078125 91.386719 "/>
</g>
</svg>
